<svg width="16" height="16" xmlns="http://www.w3.org/2000/svg"><path fill="none" d="M-1-1h18v18H-1z"/><g><ellipse stroke="null" fill="#225175" cx="8" cy="8" rx="8" ry="7.879"/><path fill="#e5d64e" d="M7.29 16v-1.9c-.14-1.23-.5-2-1.1-2.8-.9-.97-1.87-1.9-2.8-2.84-.14-.1-.35-.26-.83-.25-.32-.08-.67-.4-.78-.7-.2-.46-.11-.98.22-1.36.63-.6 1.3-.37 1.43-.3.6.25.74.73.77.96.03.22-.04.27.18.64L6.3 9.4c.33.2.47.2.67.1.27-.12.32-.27.36-.54L7.32 4.8c-.02-.32-.2-.53-.37-.73-.32-.58-.18-.95-.04-1.28.39-.54.73-.58 1.1-.64.7.07.9.37 1.08.6.32.56.15 1.06 0 1.33-.2.2-.33.42-.36.66v4.3c.1.3.25.42.36.46.19.1.4.08.6-.07l1.99-1.97c.17-.23.23-.48.22-.74.1-.57.72-.88.9-.9.63-.16 1.04.17 1.24.38.54.64.3 1.3.05 1.62-.2.26-.4.42-.76.47-.32-.03-.43.03-.68.2-.94.92-1.87 1.84-2.77 2.78-1.03 1.46-1.01 2.08-1.14 2.84V16c-.48 0-.96.03-1.42 0z"/></g></svg>