<svg width="50" height="50" xmlns="http://www.w3.org/2000/svg">
 <!-- Created with Method Draw - http://github.com/duopixel/Method-Draw/ -->

 <g>
  <title>background</title>
  <rect fill="none" id="canvas_background" height="52" width="52" y="-1" x="-1"/>
  <g display="none" overflow="visible" y="0" x="0" height="100%" width="100%" id="canvasGrid">
   <rect fill="url(#gridpattern)" stroke-width="0" y="2" x="2" height="400" width="405"/>
  </g>
 </g>
 <g>
  <title>Layer 1</title>
  <ellipse ry="24.999994" rx="24.999994" id="svg_6" cy="25" cx="25" fill="#225175"/>
  <path stroke="#0f0f00" id="svg_4" d="m22.704937,49.969696l-0.015965,-6.156096c-0.442106,-3.937195 -1.571153,-6.436658 -3.530735,-8.983933c-2.925418,-3.129548 -6.026564,-6.099344 -9.031858,-9.164991c-0.442057,-0.34969 -1.139698,-0.843146 -2.683962,-0.809459c-1.04021,-0.259233 -2.160289,-1.269246 -2.529591,-2.263283c-0.630056,-1.476908 -0.365567,-3.145503 0.697623,-4.3828c2.028906,-1.971948 4.217553,-1.196365 4.601136,-0.979872c1.929413,0.821905 2.398167,2.367995 2.481618,3.088701c0.083451,0.720706 -0.120632,0.882323 0.585805,2.066275l6.17745,6.262657c1.072178,0.660348 1.526611,0.617745 2.151457,0.319523c0.866262,-0.383428 1.029574,-0.873364 1.171585,-1.725425l-0.042603,-13.419978c-0.071005,-1.029575 -0.653248,-1.718326 -1.192887,-2.364473c-1.043775,-1.874536 -0.575142,-3.067423 -0.127809,-4.111199c1.249691,-1.725425 2.350271,-1.874537 3.557359,-2.066251c2.229562,0.227217 2.88281,1.178686 3.493455,1.895838c1.029578,1.828381 0.493487,3.438418 -0.010649,4.318882c-0.646136,0.626627 -1.068619,1.365081 -1.171597,2.11951l-0.010645,13.830034c0.347929,0.958543 0.79171,1.373929 1.171589,1.517736c0.607096,0.34435 1.310044,0.25737 1.91714,-0.228991l6.401111,-6.358514c0.53252,-0.745556 0.729561,-1.539037 0.702948,-2.396419c0.305364,-1.849635 2.320076,-2.852583 2.928969,-2.928969c2.028933,-0.509408 3.338982,0.546756 3.994046,1.23549c1.725329,2.066227 0.942548,4.180379 0.159768,5.224191c-0.655039,0.830744 -1.294103,1.341984 -2.444374,1.501769c-1.043757,-0.095839 -1.40058,0.095877 -2.188734,0.670997c-3.02482,2.9769 -6.033665,5.921849 -8.930684,8.978625c-3.305162,4.696892 -3.255528,6.69397 -3.68515,9.154331l-0.010651,6.129509c-1.555011,0.02484 -3.094056,0.097592 -4.585165,0.026587z" stroke-width="0" fill="#e5d64e"/>
 </g>
</svg>